<svg width="519" height="500" viewBox="0 0 519 500" fill="none" xmlns="http://www.w3.org/2000/svg">
<ellipse cx="15.0032" cy="15.005" rx="15.0032" ry="15.005" fill="url(#paint0_linear_10_437)"/>
<ellipse cx="15.0032" cy="327.998" rx="15.0032" ry="15.005" fill="url(#paint1_linear_10_437)"/>
<ellipse cx="15.0032" cy="171.502" rx="15.0032" ry="15.005" fill="url(#paint2_linear_10_437)"/>
<ellipse cx="15.0032" cy="484.495" rx="15.0032" ry="15.005" fill="url(#paint3_linear_10_437)"/>
<ellipse cx="15.0032" cy="93.2534" rx="15.0032" ry="15.005" fill="url(#paint4_linear_10_437)"/>
<ellipse cx="15.0032" cy="406.247" rx="15.0032" ry="15.005" fill="url(#paint5_linear_10_437)"/>
<ellipse cx="15.0032" cy="249.75" rx="15.0032" ry="15.005" fill="url(#paint6_linear_10_437)"/>
<ellipse cx="210.601" cy="15.005" rx="15.0032" ry="15.005" fill="url(#paint7_linear_10_437)"/>
<ellipse cx="210.601" cy="327.998" rx="15.0032" ry="15.005" fill="url(#paint8_linear_10_437)"/>
<ellipse cx="210.601" cy="171.502" rx="15.0032" ry="15.005" fill="url(#paint9_linear_10_437)"/>
<ellipse cx="210.601" cy="484.495" rx="15.0032" ry="15.005" fill="url(#paint10_linear_10_437)"/>
<ellipse cx="210.601" cy="93.2534" rx="15.0032" ry="15.005" fill="url(#paint11_linear_10_437)"/>
<ellipse cx="210.601" cy="406.247" rx="15.0032" ry="15.005" fill="url(#paint12_linear_10_437)"/>
<ellipse cx="210.601" cy="249.75" rx="15.0032" ry="15.005" fill="url(#paint13_linear_10_437)"/>
<ellipse cx="406.198" cy="15.005" rx="15.0032" ry="15.005" fill="url(#paint14_linear_10_437)"/>
<ellipse cx="406.198" cy="327.998" rx="15.0032" ry="15.005" fill="url(#paint15_linear_10_437)"/>
<ellipse cx="406.198" cy="171.502" rx="15.0032" ry="15.005" fill="url(#paint16_linear_10_437)"/>
<ellipse cx="406.198" cy="484.495" rx="15.0032" ry="15.005" fill="url(#paint17_linear_10_437)"/>
<ellipse cx="406.198" cy="93.2534" rx="15.0032" ry="15.005" fill="url(#paint18_linear_10_437)"/>
<ellipse cx="406.198" cy="406.247" rx="15.0032" ry="15.005" fill="url(#paint19_linear_10_437)"/>
<ellipse cx="406.198" cy="249.75" rx="15.0032" ry="15.005" fill="url(#paint20_linear_10_437)"/>
<ellipse cx="112.802" cy="15.005" rx="15.0032" ry="15.005" fill="url(#paint21_linear_10_437)"/>
<ellipse cx="112.802" cy="327.998" rx="15.0032" ry="15.005" fill="url(#paint22_linear_10_437)"/>
<ellipse cx="112.802" cy="171.502" rx="15.0032" ry="15.005" fill="url(#paint23_linear_10_437)"/>
<ellipse cx="112.802" cy="484.495" rx="15.0032" ry="15.005" fill="url(#paint24_linear_10_437)"/>
<ellipse cx="112.802" cy="93.2534" rx="15.0032" ry="15.005" fill="url(#paint25_linear_10_437)"/>
<ellipse cx="112.802" cy="406.247" rx="15.0032" ry="15.005" fill="url(#paint26_linear_10_437)"/>
<ellipse cx="112.802" cy="249.75" rx="15.0032" ry="15.005" fill="url(#paint27_linear_10_437)"/>
<ellipse cx="308.399" cy="15.005" rx="15.0032" ry="15.005" fill="url(#paint28_linear_10_437)"/>
<ellipse cx="308.399" cy="327.998" rx="15.0032" ry="15.005" fill="url(#paint29_linear_10_437)"/>
<ellipse cx="308.399" cy="171.502" rx="15.0032" ry="15.005" fill="url(#paint30_linear_10_437)"/>
<ellipse cx="308.399" cy="484.495" rx="15.0032" ry="15.005" fill="url(#paint31_linear_10_437)"/>
<ellipse cx="308.399" cy="93.2534" rx="15.0032" ry="15.005" fill="url(#paint32_linear_10_437)"/>
<ellipse cx="308.399" cy="406.247" rx="15.0032" ry="15.005" fill="url(#paint33_linear_10_437)"/>
<ellipse cx="308.399" cy="249.75" rx="15.0032" ry="15.005" fill="url(#paint34_linear_10_437)"/>
<ellipse cx="503.997" cy="15.005" rx="15.0032" ry="15.005" fill="url(#paint35_linear_10_437)"/>
<ellipse cx="503.997" cy="327.998" rx="15.0032" ry="15.005" fill="url(#paint36_linear_10_437)"/>
<ellipse cx="503.997" cy="171.502" rx="15.0032" ry="15.005" fill="url(#paint37_linear_10_437)"/>
<ellipse cx="503.997" cy="484.495" rx="15.0032" ry="15.005" fill="url(#paint38_linear_10_437)"/>
<ellipse cx="503.997" cy="93.2534" rx="15.0032" ry="15.005" fill="url(#paint39_linear_10_437)"/>
<ellipse cx="503.997" cy="406.247" rx="15.0032" ry="15.005" fill="url(#paint40_linear_10_437)"/>
<ellipse cx="503.997" cy="249.75" rx="15.0032" ry="15.005" fill="url(#paint41_linear_10_437)"/>
<defs>
<linearGradient id="paint0_linear_10_437" x1="3.84988" y1="5.71889" x2="27.1495" y2="24.1469" gradientUnits="userSpaceOnUse">
<stop stop-color="#D8E2EE"/>
<stop offset="1" stop-color="#C0CEE0"/>
</linearGradient>
<linearGradient id="paint1_linear_10_437" x1="3.84988" y1="318.712" x2="27.1495" y2="337.14" gradientUnits="userSpaceOnUse">
<stop stop-color="#D8E2EE"/>
<stop offset="1" stop-color="#C0CEE0"/>
</linearGradient>
<linearGradient id="paint2_linear_10_437" x1="3.84988" y1="162.215" x2="27.1495" y2="180.643" gradientUnits="userSpaceOnUse">
<stop stop-color="#D8E2EE"/>
<stop offset="1" stop-color="#C0CEE0"/>
</linearGradient>
<linearGradient id="paint3_linear_10_437" x1="3.84988" y1="475.209" x2="27.1495" y2="493.637" gradientUnits="userSpaceOnUse">
<stop stop-color="#D8E2EE"/>
<stop offset="1" stop-color="#C0CEE0"/>
</linearGradient>
<linearGradient id="paint4_linear_10_437" x1="3.84988" y1="83.9673" x2="27.1495" y2="102.395" gradientUnits="userSpaceOnUse">
<stop stop-color="#D8E2EE"/>
<stop offset="1" stop-color="#C0CEE0"/>
</linearGradient>
<linearGradient id="paint5_linear_10_437" x1="3.84988" y1="396.961" x2="27.1495" y2="415.389" gradientUnits="userSpaceOnUse">
<stop stop-color="#D8E2EE"/>
<stop offset="1" stop-color="#C0CEE0"/>
</linearGradient>
<linearGradient id="paint6_linear_10_437" x1="3.84988" y1="240.464" x2="27.1495" y2="258.892" gradientUnits="userSpaceOnUse">
<stop stop-color="#D8E2EE"/>
<stop offset="1" stop-color="#C0CEE0"/>
</linearGradient>
<linearGradient id="paint7_linear_10_437" x1="199.447" y1="5.71889" x2="222.747" y2="24.1469" gradientUnits="userSpaceOnUse">
<stop stop-color="#D8E2EE"/>
<stop offset="1" stop-color="#C0CEE0"/>
</linearGradient>
<linearGradient id="paint8_linear_10_437" x1="199.447" y1="318.712" x2="222.747" y2="337.14" gradientUnits="userSpaceOnUse">
<stop stop-color="#D8E2EE"/>
<stop offset="1" stop-color="#C0CEE0"/>
</linearGradient>
<linearGradient id="paint9_linear_10_437" x1="199.447" y1="162.215" x2="222.747" y2="180.643" gradientUnits="userSpaceOnUse">
<stop stop-color="#D8E2EE"/>
<stop offset="1" stop-color="#C0CEE0"/>
</linearGradient>
<linearGradient id="paint10_linear_10_437" x1="199.447" y1="475.209" x2="222.747" y2="493.637" gradientUnits="userSpaceOnUse">
<stop stop-color="#D8E2EE"/>
<stop offset="1" stop-color="#C0CEE0"/>
</linearGradient>
<linearGradient id="paint11_linear_10_437" x1="199.447" y1="83.9673" x2="222.747" y2="102.395" gradientUnits="userSpaceOnUse">
<stop stop-color="#D8E2EE"/>
<stop offset="1" stop-color="#C0CEE0"/>
</linearGradient>
<linearGradient id="paint12_linear_10_437" x1="199.447" y1="396.961" x2="222.747" y2="415.389" gradientUnits="userSpaceOnUse">
<stop stop-color="#D8E2EE"/>
<stop offset="1" stop-color="#C0CEE0"/>
</linearGradient>
<linearGradient id="paint13_linear_10_437" x1="199.447" y1="240.464" x2="222.747" y2="258.892" gradientUnits="userSpaceOnUse">
<stop stop-color="#D8E2EE"/>
<stop offset="1" stop-color="#C0CEE0"/>
</linearGradient>
<linearGradient id="paint14_linear_10_437" x1="395.045" y1="5.71889" x2="418.344" y2="24.1469" gradientUnits="userSpaceOnUse">
<stop stop-color="#D8E2EE"/>
<stop offset="1" stop-color="#C0CEE0"/>
</linearGradient>
<linearGradient id="paint15_linear_10_437" x1="395.045" y1="318.712" x2="418.344" y2="337.14" gradientUnits="userSpaceOnUse">
<stop stop-color="#D8E2EE"/>
<stop offset="1" stop-color="#C0CEE0"/>
</linearGradient>
<linearGradient id="paint16_linear_10_437" x1="395.045" y1="162.215" x2="418.344" y2="180.643" gradientUnits="userSpaceOnUse">
<stop stop-color="#D8E2EE"/>
<stop offset="1" stop-color="#C0CEE0"/>
</linearGradient>
<linearGradient id="paint17_linear_10_437" x1="395.045" y1="475.209" x2="418.344" y2="493.637" gradientUnits="userSpaceOnUse">
<stop stop-color="#D8E2EE"/>
<stop offset="1" stop-color="#C0CEE0"/>
</linearGradient>
<linearGradient id="paint18_linear_10_437" x1="395.045" y1="83.9673" x2="418.344" y2="102.395" gradientUnits="userSpaceOnUse">
<stop stop-color="#D8E2EE"/>
<stop offset="1" stop-color="#C0CEE0"/>
</linearGradient>
<linearGradient id="paint19_linear_10_437" x1="395.045" y1="396.961" x2="418.344" y2="415.389" gradientUnits="userSpaceOnUse">
<stop stop-color="#D8E2EE"/>
<stop offset="1" stop-color="#C0CEE0"/>
</linearGradient>
<linearGradient id="paint20_linear_10_437" x1="395.045" y1="240.464" x2="418.344" y2="258.892" gradientUnits="userSpaceOnUse">
<stop stop-color="#D8E2EE"/>
<stop offset="1" stop-color="#C0CEE0"/>
</linearGradient>
<linearGradient id="paint21_linear_10_437" x1="101.649" y1="5.71889" x2="124.948" y2="24.1469" gradientUnits="userSpaceOnUse">
<stop stop-color="#D8E2EE"/>
<stop offset="1" stop-color="#C0CEE0"/>
</linearGradient>
<linearGradient id="paint22_linear_10_437" x1="101.649" y1="318.712" x2="124.948" y2="337.14" gradientUnits="userSpaceOnUse">
<stop stop-color="#D8E2EE"/>
<stop offset="1" stop-color="#C0CEE0"/>
</linearGradient>
<linearGradient id="paint23_linear_10_437" x1="101.649" y1="162.215" x2="124.948" y2="180.643" gradientUnits="userSpaceOnUse">
<stop stop-color="#D8E2EE"/>
<stop offset="1" stop-color="#C0CEE0"/>
</linearGradient>
<linearGradient id="paint24_linear_10_437" x1="101.649" y1="475.209" x2="124.948" y2="493.637" gradientUnits="userSpaceOnUse">
<stop stop-color="#D8E2EE"/>
<stop offset="1" stop-color="#C0CEE0"/>
</linearGradient>
<linearGradient id="paint25_linear_10_437" x1="101.649" y1="83.9673" x2="124.948" y2="102.395" gradientUnits="userSpaceOnUse">
<stop stop-color="#D8E2EE"/>
<stop offset="1" stop-color="#C0CEE0"/>
</linearGradient>
<linearGradient id="paint26_linear_10_437" x1="101.649" y1="396.961" x2="124.948" y2="415.389" gradientUnits="userSpaceOnUse">
<stop stop-color="#D8E2EE"/>
<stop offset="1" stop-color="#C0CEE0"/>
</linearGradient>
<linearGradient id="paint27_linear_10_437" x1="101.649" y1="240.464" x2="124.948" y2="258.892" gradientUnits="userSpaceOnUse">
<stop stop-color="#D8E2EE"/>
<stop offset="1" stop-color="#C0CEE0"/>
</linearGradient>
<linearGradient id="paint28_linear_10_437" x1="297.246" y1="5.71889" x2="320.546" y2="24.1469" gradientUnits="userSpaceOnUse">
<stop stop-color="#D8E2EE"/>
<stop offset="1" stop-color="#C0CEE0"/>
</linearGradient>
<linearGradient id="paint29_linear_10_437" x1="297.246" y1="318.712" x2="320.546" y2="337.14" gradientUnits="userSpaceOnUse">
<stop stop-color="#D8E2EE"/>
<stop offset="1" stop-color="#C0CEE0"/>
</linearGradient>
<linearGradient id="paint30_linear_10_437" x1="297.246" y1="162.215" x2="320.546" y2="180.643" gradientUnits="userSpaceOnUse">
<stop stop-color="#D8E2EE"/>
<stop offset="1" stop-color="#C0CEE0"/>
</linearGradient>
<linearGradient id="paint31_linear_10_437" x1="297.246" y1="475.209" x2="320.546" y2="493.637" gradientUnits="userSpaceOnUse">
<stop stop-color="#D8E2EE"/>
<stop offset="1" stop-color="#C0CEE0"/>
</linearGradient>
<linearGradient id="paint32_linear_10_437" x1="297.246" y1="83.9673" x2="320.546" y2="102.395" gradientUnits="userSpaceOnUse">
<stop stop-color="#D8E2EE"/>
<stop offset="1" stop-color="#C0CEE0"/>
</linearGradient>
<linearGradient id="paint33_linear_10_437" x1="297.246" y1="396.961" x2="320.546" y2="415.389" gradientUnits="userSpaceOnUse">
<stop stop-color="#D8E2EE"/>
<stop offset="1" stop-color="#C0CEE0"/>
</linearGradient>
<linearGradient id="paint34_linear_10_437" x1="297.246" y1="240.464" x2="320.546" y2="258.892" gradientUnits="userSpaceOnUse">
<stop stop-color="#D8E2EE"/>
<stop offset="1" stop-color="#C0CEE0"/>
</linearGradient>
<linearGradient id="paint35_linear_10_437" x1="492.844" y1="5.71889" x2="516.143" y2="24.1469" gradientUnits="userSpaceOnUse">
<stop stop-color="#D8E2EE"/>
<stop offset="1" stop-color="#C0CEE0"/>
</linearGradient>
<linearGradient id="paint36_linear_10_437" x1="492.844" y1="318.712" x2="516.143" y2="337.14" gradientUnits="userSpaceOnUse">
<stop stop-color="#D8E2EE"/>
<stop offset="1" stop-color="#C0CEE0"/>
</linearGradient>
<linearGradient id="paint37_linear_10_437" x1="492.844" y1="162.215" x2="516.143" y2="180.643" gradientUnits="userSpaceOnUse">
<stop stop-color="#D8E2EE"/>
<stop offset="1" stop-color="#C0CEE0"/>
</linearGradient>
<linearGradient id="paint38_linear_10_437" x1="492.844" y1="475.209" x2="516.143" y2="493.637" gradientUnits="userSpaceOnUse">
<stop stop-color="#D8E2EE"/>
<stop offset="1" stop-color="#C0CEE0"/>
</linearGradient>
<linearGradient id="paint39_linear_10_437" x1="492.844" y1="83.9673" x2="516.143" y2="102.395" gradientUnits="userSpaceOnUse">
<stop stop-color="#D8E2EE"/>
<stop offset="1" stop-color="#C0CEE0"/>
</linearGradient>
<linearGradient id="paint40_linear_10_437" x1="492.844" y1="396.961" x2="516.143" y2="415.389" gradientUnits="userSpaceOnUse">
<stop stop-color="#D8E2EE"/>
<stop offset="1" stop-color="#C0CEE0"/>
</linearGradient>
<linearGradient id="paint41_linear_10_437" x1="492.844" y1="240.464" x2="516.143" y2="258.892" gradientUnits="userSpaceOnUse">
<stop stop-color="#D8E2EE"/>
<stop offset="1" stop-color="#C0CEE0"/>
</linearGradient>
</defs>
</svg>
